<svg width="167" height="56" viewBox="0 0 167 56" fill="none" xmlns="http://www.w3.org/2000/svg">
<g clip-path="url(#clip0_0_97)">
<rect width="167" height="56" rx="28" fill="url(#paint0_linear_0_97)"/>
<path d="M44.8 35.192C45.504 35.192 46.1867 35.0747 46.848 34.84C47.5093 34.5947 48.1013 34.2373 48.624 33.768C49.1573 33.288 49.5787 32.7013 49.888 32.008C50.1973 31.304 50.352 30.488 50.352 29.56V28.36H44.752V30.2H48.176V30.248C48.176 30.856 48.0213 31.384 47.712 31.832C47.4027 32.2693 46.992 32.6107 46.48 32.856C45.968 33.0907 45.408 33.208 44.8 33.208C44.0533 33.208 43.392 33.032 42.816 32.68C42.24 32.328 41.7867 31.8427 41.456 31.224C41.136 30.5947 40.976 29.864 40.976 29.032C40.976 28.2 41.136 27.4747 41.456 26.856C41.776 26.2267 42.2187 25.7413 42.784 25.4C43.3493 25.048 44.0053 24.872 44.752 24.872C45.5093 24.872 46.1547 25.064 46.688 25.448C47.2213 25.832 47.6053 26.3333 47.84 26.952L49.776 26.024C49.5733 25.4587 49.2373 24.9413 48.768 24.472C48.2987 23.992 47.7227 23.608 47.04 23.32C46.368 23.032 45.6053 22.888 44.752 22.888C43.8987 22.888 43.1093 23.0427 42.384 23.352C41.6587 23.6507 41.0293 24.0773 40.496 24.632C39.9627 25.176 39.5467 25.8267 39.248 26.584C38.9493 27.3307 38.8 28.1467 38.8 29.032C38.8 29.9173 38.9493 30.7387 39.248 31.496C39.5573 32.2427 39.984 32.8933 40.528 33.448C41.072 34.0027 41.7067 34.4347 42.432 34.744C43.1573 35.0427 43.9467 35.192 44.8 35.192ZM56.0259 35.192C56.9112 35.192 57.6845 34.9947 58.3459 34.6C59.0179 34.1947 59.4872 33.6827 59.7539 33.064L58.0579 32.232C57.8659 32.5627 57.5992 32.8347 57.2579 33.048C56.9272 33.2507 56.5219 33.352 56.0419 33.352C55.4125 33.352 54.8845 33.16 54.4579 32.776C54.0312 32.392 53.7859 31.88 53.7219 31.24H59.9939C60.0365 31.1227 60.0632 30.9893 60.0739 30.84C60.0952 30.68 60.1059 30.52 60.1059 30.36C60.1059 29.5813 59.9405 28.872 59.6099 28.232C59.2792 27.592 58.7992 27.08 58.1699 26.696C57.5405 26.3013 56.7725 26.104 55.8659 26.104C55.0552 26.104 54.3192 26.3013 53.6579 26.696C53.0072 27.0907 52.4899 27.6293 52.1059 28.312C51.7325 28.984 51.5459 29.7573 51.5459 30.632C51.5459 31.4747 51.7325 32.2427 52.1059 32.936C52.4792 33.6293 53.0019 34.1787 53.6739 34.584C54.3459 34.9893 55.1299 35.192 56.0259 35.192ZM55.8659 27.832C56.4205 27.832 56.8792 28.0027 57.2419 28.344C57.6152 28.6747 57.8232 29.1067 57.8659 29.64H53.7699C53.8872 29.064 54.1325 28.6213 54.5059 28.312C54.8899 27.992 55.3432 27.832 55.8659 27.832ZM65.6628 35.096C66.0148 35.096 66.3614 35.0693 66.7028 35.016V33.208C66.5001 33.24 66.3134 33.256 66.1428 33.256C65.6308 33.256 65.2574 33.1387 65.0228 32.904C64.7881 32.6693 64.6708 32.3333 64.6708 31.896V28.168H66.6708V26.296H64.6708V24.312H62.5748V24.984C62.5748 25.4107 62.4574 25.736 62.2228 25.96C61.9881 26.184 61.6574 26.296 61.2308 26.296H61.0708V28.168H62.5748V32.008C62.5748 32.9787 62.8414 33.736 63.3748 34.28C63.9188 34.824 64.6814 35.096 65.6628 35.096ZM75.5799 35.192C76.4012 35.192 77.1212 35.0427 77.7399 34.744C78.3585 34.4453 78.8439 34.0347 79.1959 33.512C79.5479 32.9893 79.7239 32.3867 79.7239 31.704C79.7239 30.1147 78.7745 29.016 76.8759 28.408L74.6839 27.72C74.2572 27.5813 73.9319 27.3893 73.7079 27.144C73.4945 26.888 73.3879 26.5947 73.3879 26.264C73.3879 25.8267 73.5532 25.4747 73.8839 25.208C74.2252 24.9307 74.6732 24.792 75.2279 24.792C75.8465 24.792 76.3905 24.9573 76.8599 25.288C77.3292 25.608 77.6812 26.0667 77.9159 26.664L79.7079 25.864C79.3879 24.968 78.8279 24.248 78.0279 23.704C77.2385 23.16 76.3052 22.888 75.2279 22.888C74.4492 22.888 73.7559 23.0373 73.1479 23.336C72.5505 23.624 72.0812 24.0293 71.7399 24.552C71.4092 25.0747 71.2439 25.6773 71.2439 26.36C71.2439 27.1387 71.4785 27.816 71.9479 28.392C72.4172 28.9573 73.1159 29.3893 74.0439 29.688L76.3319 30.424C76.7479 30.5627 77.0572 30.744 77.2599 30.968C77.4732 31.192 77.5799 31.48 77.5799 31.832C77.5799 32.2693 77.4039 32.6213 77.0519 32.888C76.7105 33.1547 76.2572 33.288 75.6919 33.288C75.0092 33.288 74.3959 33.096 73.8519 32.712C73.3079 32.3173 72.8919 31.7787 72.6039 31.096L70.7959 31.88C71.0092 32.5413 71.3452 33.1227 71.8039 33.624C72.2732 34.1147 72.8279 34.4987 73.4679 34.776C74.1185 35.0533 74.8225 35.192 75.5799 35.192ZM85.4753 35.096C85.8273 35.096 86.1739 35.0693 86.5153 35.016V33.208C86.3126 33.24 86.1259 33.256 85.9553 33.256C85.4433 33.256 85.0699 33.1387 84.8353 32.904C84.6006 32.6693 84.4833 32.3333 84.4833 31.896V28.168H86.4833V26.296H84.4833V24.312H82.3873V24.984C82.3873 25.4107 82.2699 25.736 82.0353 25.96C81.8006 26.184 81.4699 26.296 81.0433 26.296H80.8833V28.168H82.3873V32.008C82.3873 32.9787 82.6539 33.736 83.1873 34.28C83.7313 34.824 84.4939 35.096 85.4753 35.096ZM90.7098 35.192C91.8404 35.192 92.7471 34.8187 93.4298 34.072V35H95.4138V29.208C95.4138 28.6 95.2591 28.0613 94.9498 27.592C94.6404 27.1227 94.2138 26.76 93.6698 26.504C93.1364 26.2373 92.5124 26.104 91.7977 26.104C90.9231 26.104 90.1444 26.312 89.4618 26.728C88.7791 27.144 88.3098 27.6933 88.0538 28.376L89.7658 29.208C89.9258 28.8133 90.1764 28.4987 90.5178 28.264C90.8591 28.0187 91.2591 27.896 91.7178 27.896C92.1978 27.896 92.5818 28.024 92.8698 28.28C93.1684 28.5253 93.3178 28.8347 93.3178 29.208V29.496L90.7258 29.912C89.7018 30.0827 88.9444 30.408 88.4538 30.888C87.9631 31.368 87.7178 31.9707 87.7178 32.696C87.7178 33.464 87.9898 34.072 88.5338 34.52C89.0778 34.968 89.8031 35.192 90.7098 35.192ZM89.8938 32.616C89.8938 32.008 90.3044 31.624 91.1258 31.464L93.3178 31.096V31.448C93.3178 32.0453 93.1098 32.552 92.6938 32.968C92.2884 33.384 91.7551 33.592 91.0938 33.592C90.7418 33.592 90.4538 33.5067 90.2298 33.336C90.0058 33.1547 89.8938 32.9147 89.8938 32.616ZM97.351 35H99.447V30.152C99.447 29.4907 99.6283 28.9787 99.991 28.616C100.364 28.2427 100.844 28.056 101.431 28.056H102.183V26.2H101.671C101.138 26.2 100.668 26.296 100.263 26.488C99.8577 26.68 99.543 27.0267 99.319 27.528V26.296H97.351V35ZM107.538 35.096C107.89 35.096 108.236 35.0693 108.578 35.016V33.208C108.375 33.24 108.188 33.256 108.018 33.256C107.506 33.256 107.132 33.1387 106.898 32.904C106.663 32.6693 106.546 32.3333 106.546 31.896V28.168H108.546V26.296H106.546V24.312H104.45V24.984C104.45 25.4107 104.332 25.736 104.098 25.96C103.863 26.184 103.532 26.296 103.106 26.296H102.946V28.168H104.45V32.008C104.45 32.9787 104.716 33.736 105.25 34.28C105.794 34.824 106.556 35.096 107.538 35.096ZM114.229 35.192C115.114 35.192 115.888 34.9947 116.549 34.6C117.221 34.1947 117.69 33.6827 117.957 33.064L116.261 32.232C116.069 32.5627 115.802 32.8347 115.461 33.048C115.13 33.2507 114.725 33.352 114.245 33.352C113.616 33.352 113.088 33.16 112.661 32.776C112.234 32.392 111.989 31.88 111.925 31.24H118.197C118.24 31.1227 118.266 30.9893 118.277 30.84C118.298 30.68 118.309 30.52 118.309 30.36C118.309 29.5813 118.144 28.872 117.813 28.232C117.482 27.592 117.002 27.08 116.373 26.696C115.744 26.3013 114.976 26.104 114.069 26.104C113.258 26.104 112.522 26.3013 111.861 26.696C111.21 27.0907 110.693 27.6293 110.309 28.312C109.936 28.984 109.749 29.7573 109.749 30.632C109.749 31.4747 109.936 32.2427 110.309 32.936C110.682 33.6293 111.205 34.1787 111.877 34.584C112.549 34.9893 113.333 35.192 114.229 35.192ZM114.069 27.832C114.624 27.832 115.082 28.0027 115.445 28.344C115.818 28.6747 116.026 29.1067 116.069 29.64H111.973C112.09 29.064 112.336 28.6213 112.709 28.312C113.093 27.992 113.546 27.832 114.069 27.832ZM123.946 35.192C124.511 35.192 125.034 35.096 125.514 34.904C125.994 34.7013 126.394 34.4133 126.714 34.04V35H128.698V22.888H126.602V27.176C125.951 26.4613 125.061 26.104 123.93 26.104C123.109 26.104 122.362 26.3067 121.69 26.712C121.029 27.1067 120.506 27.6507 120.122 28.344C119.738 29.0267 119.546 29.7947 119.546 30.648C119.546 31.5013 119.738 32.2747 120.122 32.968C120.506 33.6507 121.029 34.1947 121.69 34.6C122.351 34.9947 123.103 35.192 123.946 35.192ZM124.17 33.272C123.701 33.272 123.279 33.16 122.906 32.936C122.533 32.712 122.239 32.4027 122.026 32.008C121.823 31.6027 121.722 31.1493 121.722 30.648C121.722 30.1467 121.823 29.6987 122.026 29.304C122.239 28.9093 122.533 28.6 122.906 28.376C123.279 28.1413 123.701 28.024 124.17 28.024C124.639 28.024 125.055 28.136 125.418 28.36C125.791 28.584 126.079 28.8933 126.282 29.288C126.495 29.6827 126.602 30.136 126.602 30.648C126.602 31.16 126.495 31.6133 126.282 32.008C126.079 32.4027 125.791 32.712 125.418 32.936C125.055 33.16 124.639 33.272 124.17 33.272Z" fill="white"/>
</g>
<defs>
<linearGradient id="paint0_linear_0_97" x1="0" y1="0" x2="0" y2="56" gradientUnits="userSpaceOnUse">
<stop stop-color="#FF6F48"/>
<stop offset="1" stop-color="#F02AA6"/>
</linearGradient>
<clipPath id="clip0_0_97">
<rect width="167" height="56" fill="white"/>
</clipPath>
</defs>
</svg>
