<svg width="140" height="48" viewBox="0 0 140 48" fill="none" xmlns="http://www.w3.org/2000/svg">
<g clip-path="url(#clip0_0_91)">
<rect width="140" height="48" rx="24" fill="#13183F"/>
<path d="M30.8 30.192C31.504 30.192 32.1867 30.0747 32.848 29.84C33.5093 29.5947 34.1013 29.2373 34.624 28.768C35.1573 28.288 35.5787 27.7013 35.888 27.008C36.1973 26.304 36.352 25.488 36.352 24.56V23.36H30.752V25.2H34.176V25.248C34.176 25.856 34.0213 26.384 33.712 26.832C33.4027 27.2693 32.992 27.6107 32.48 27.856C31.968 28.0907 31.408 28.208 30.8 28.208C30.0533 28.208 29.392 28.032 28.816 27.68C28.24 27.328 27.7867 26.8427 27.456 26.224C27.136 25.5947 26.976 24.864 26.976 24.032C26.976 23.2 27.136 22.4747 27.456 21.856C27.776 21.2267 28.2187 20.7413 28.784 20.4C29.3493 20.048 30.0053 19.872 30.752 19.872C31.5093 19.872 32.1547 20.064 32.688 20.448C33.2213 20.832 33.6053 21.3333 33.84 21.952L35.776 21.024C35.5733 20.4587 35.2373 19.9413 34.768 19.472C34.2987 18.992 33.7227 18.608 33.04 18.32C32.368 18.032 31.6053 17.888 30.752 17.888C29.8987 17.888 29.1093 18.0427 28.384 18.352C27.6587 18.6507 27.0293 19.0773 26.496 19.632C25.9627 20.176 25.5467 20.8267 25.248 21.584C24.9493 22.3307 24.8 23.1467 24.8 24.032C24.8 24.9173 24.9493 25.7387 25.248 26.496C25.5573 27.2427 25.984 27.8933 26.528 28.448C27.072 29.0027 27.7067 29.4347 28.432 29.744C29.1573 30.0427 29.9467 30.192 30.8 30.192ZM42.0259 30.192C42.9112 30.192 43.6845 29.9947 44.3459 29.6C45.0179 29.1947 45.4872 28.6827 45.7539 28.064L44.0579 27.232C43.8659 27.5627 43.5992 27.8347 43.2579 28.048C42.9272 28.2507 42.5219 28.352 42.0419 28.352C41.4125 28.352 40.8845 28.16 40.4579 27.776C40.0312 27.392 39.7859 26.88 39.7219 26.24H45.9939C46.0365 26.1227 46.0632 25.9893 46.0739 25.84C46.0952 25.68 46.1059 25.52 46.1059 25.36C46.1059 24.5813 45.9405 23.872 45.6099 23.232C45.2792 22.592 44.7992 22.08 44.1699 21.696C43.5405 21.3013 42.7725 21.104 41.8659 21.104C41.0552 21.104 40.3192 21.3013 39.6579 21.696C39.0072 22.0907 38.4899 22.6293 38.1059 23.312C37.7325 23.984 37.5459 24.7573 37.5459 25.632C37.5459 26.4747 37.7325 27.2427 38.1059 27.936C38.4792 28.6293 39.0019 29.1787 39.6739 29.584C40.3459 29.9893 41.1299 30.192 42.0259 30.192ZM41.8659 22.832C42.4205 22.832 42.8792 23.0027 43.2419 23.344C43.6152 23.6747 43.8232 24.1067 43.8659 24.64H39.7699C39.8872 24.064 40.1325 23.6213 40.5059 23.312C40.8899 22.992 41.3432 22.832 41.8659 22.832ZM51.6628 30.096C52.0148 30.096 52.3614 30.0693 52.7028 30.016V28.208C52.5001 28.24 52.3134 28.256 52.1428 28.256C51.6308 28.256 51.2574 28.1387 51.0228 27.904C50.7881 27.6693 50.6708 27.3333 50.6708 26.896V23.168H52.6708V21.296H50.6708V19.312H48.5748V19.984C48.5748 20.4107 48.4574 20.736 48.2228 20.96C47.9881 21.184 47.6574 21.296 47.2308 21.296H47.0708V23.168H48.5748V27.008C48.5748 27.9787 48.8414 28.736 49.3748 29.28C49.9188 29.824 50.6814 30.096 51.6628 30.096ZM61.5799 30.192C62.4012 30.192 63.1212 30.0427 63.7399 29.744C64.3585 29.4453 64.8439 29.0347 65.1959 28.512C65.5479 27.9893 65.7239 27.3867 65.7239 26.704C65.7239 25.1147 64.7745 24.016 62.8759 23.408L60.6839 22.72C60.2572 22.5813 59.9319 22.3893 59.7079 22.144C59.4945 21.888 59.3879 21.5947 59.3879 21.264C59.3879 20.8267 59.5532 20.4747 59.8839 20.208C60.2252 19.9307 60.6732 19.792 61.2279 19.792C61.8465 19.792 62.3905 19.9573 62.8599 20.288C63.3292 20.608 63.6812 21.0667 63.9159 21.664L65.7079 20.864C65.3879 19.968 64.8279 19.248 64.0279 18.704C63.2385 18.16 62.3052 17.888 61.2279 17.888C60.4492 17.888 59.7559 18.0373 59.1479 18.336C58.5505 18.624 58.0812 19.0293 57.7399 19.552C57.4092 20.0747 57.2439 20.6773 57.2439 21.36C57.2439 22.1387 57.4785 22.816 57.9479 23.392C58.4172 23.9573 59.1159 24.3893 60.0439 24.688L62.3319 25.424C62.7479 25.5627 63.0572 25.744 63.2599 25.968C63.4732 26.192 63.5799 26.48 63.5799 26.832C63.5799 27.2693 63.4039 27.6213 63.0519 27.888C62.7105 28.1547 62.2572 28.288 61.6919 28.288C61.0092 28.288 60.3959 28.096 59.8519 27.712C59.3079 27.3173 58.8919 26.7787 58.6039 26.096L56.7959 26.88C57.0092 27.5413 57.3452 28.1227 57.8039 28.624C58.2732 29.1147 58.8279 29.4987 59.4679 29.776C60.1185 30.0533 60.8225 30.192 61.5799 30.192ZM71.4753 30.096C71.8273 30.096 72.1739 30.0693 72.5153 30.016V28.208C72.3126 28.24 72.1259 28.256 71.9553 28.256C71.4433 28.256 71.0699 28.1387 70.8353 27.904C70.6006 27.6693 70.4833 27.3333 70.4833 26.896V23.168H72.4833V21.296H70.4833V19.312H68.3873V19.984C68.3873 20.4107 68.2699 20.736 68.0353 20.96C67.8006 21.184 67.4699 21.296 67.0433 21.296H66.8833V23.168H68.3873V27.008C68.3873 27.9787 68.6539 28.736 69.1873 29.28C69.7313 29.824 70.4939 30.096 71.4753 30.096ZM76.7098 30.192C77.8404 30.192 78.7471 29.8187 79.4298 29.072V30H81.4138V24.208C81.4138 23.6 81.2591 23.0613 80.9498 22.592C80.6404 22.1227 80.2138 21.76 79.6698 21.504C79.1364 21.2373 78.5124 21.104 77.7977 21.104C76.9231 21.104 76.1444 21.312 75.4618 21.728C74.7791 22.144 74.3098 22.6933 74.0538 23.376L75.7658 24.208C75.9258 23.8133 76.1764 23.4987 76.5178 23.264C76.8591 23.0187 77.2591 22.896 77.7178 22.896C78.1978 22.896 78.5818 23.024 78.8698 23.28C79.1684 23.5253 79.3178 23.8347 79.3178 24.208V24.496L76.7258 24.912C75.7018 25.0827 74.9444 25.408 74.4538 25.888C73.9631 26.368 73.7178 26.9707 73.7178 27.696C73.7178 28.464 73.9898 29.072 74.5338 29.52C75.0778 29.968 75.8031 30.192 76.7098 30.192ZM75.8938 27.616C75.8938 27.008 76.3044 26.624 77.1258 26.464L79.3178 26.096V26.448C79.3178 27.0453 79.1098 27.552 78.6938 27.968C78.2884 28.384 77.7551 28.592 77.0938 28.592C76.7418 28.592 76.4538 28.5067 76.2298 28.336C76.0058 28.1547 75.8938 27.9147 75.8938 27.616ZM83.351 30H85.447V25.152C85.447 24.4907 85.6283 23.9787 85.991 23.616C86.3643 23.2427 86.8443 23.056 87.431 23.056H88.183V21.2H87.671C87.1377 21.2 86.6683 21.296 86.263 21.488C85.8577 21.68 85.543 22.0267 85.319 22.528V21.296H83.351V30ZM93.5378 30.096C93.8898 30.096 94.2364 30.0693 94.5778 30.016V28.208C94.3751 28.24 94.1884 28.256 94.0178 28.256C93.5058 28.256 93.1324 28.1387 92.8978 27.904C92.6631 27.6693 92.5458 27.3333 92.5458 26.896V23.168H94.5458V21.296H92.5458V19.312H90.4498V19.984C90.4498 20.4107 90.3324 20.736 90.0978 20.96C89.8631 21.184 89.5324 21.296 89.1058 21.296H88.9458V23.168H90.4498V27.008C90.4498 27.9787 90.7164 28.736 91.2498 29.28C91.7938 29.824 92.5564 30.096 93.5378 30.096ZM100.229 30.192C101.114 30.192 101.888 29.9947 102.549 29.6C103.221 29.1947 103.69 28.6827 103.957 28.064L102.261 27.232C102.069 27.5627 101.802 27.8347 101.461 28.048C101.13 28.2507 100.725 28.352 100.245 28.352C99.6157 28.352 99.0877 28.16 98.661 27.776C98.2343 27.392 97.989 26.88 97.925 26.24H104.197C104.24 26.1227 104.266 25.9893 104.277 25.84C104.298 25.68 104.309 25.52 104.309 25.36C104.309 24.5813 104.144 23.872 103.813 23.232C103.482 22.592 103.002 22.08 102.373 21.696C101.744 21.3013 100.976 21.104 100.069 21.104C99.2583 21.104 98.5223 21.3013 97.861 21.696C97.2103 22.0907 96.693 22.6293 96.309 23.312C95.9357 23.984 95.749 24.7573 95.749 25.632C95.749 26.4747 95.9357 27.2427 96.309 27.936C96.6823 28.6293 97.205 29.1787 97.877 29.584C98.549 29.9893 99.333 30.192 100.229 30.192ZM100.069 22.832C100.624 22.832 101.082 23.0027 101.445 23.344C101.818 23.6747 102.026 24.1067 102.069 24.64H97.973C98.0903 24.064 98.3357 23.6213 98.709 23.312C99.093 22.992 99.5463 22.832 100.069 22.832ZM109.946 30.192C110.511 30.192 111.034 30.096 111.514 29.904C111.994 29.7013 112.394 29.4133 112.714 29.04V30H114.698V17.888H112.602V22.176C111.951 21.4613 111.061 21.104 109.93 21.104C109.109 21.104 108.362 21.3067 107.69 21.712C107.029 22.1067 106.506 22.6507 106.122 23.344C105.738 24.0267 105.546 24.7947 105.546 25.648C105.546 26.5013 105.738 27.2747 106.122 27.968C106.506 28.6507 107.029 29.1947 107.69 29.6C108.351 29.9947 109.103 30.192 109.946 30.192ZM110.17 28.272C109.701 28.272 109.279 28.16 108.906 27.936C108.533 27.712 108.239 27.4027 108.026 27.008C107.823 26.6027 107.722 26.1493 107.722 25.648C107.722 25.1467 107.823 24.6987 108.026 24.304C108.239 23.9093 108.533 23.6 108.906 23.376C109.279 23.1413 109.701 23.024 110.17 23.024C110.639 23.024 111.055 23.136 111.418 23.36C111.791 23.584 112.079 23.8933 112.282 24.288C112.495 24.6827 112.602 25.136 112.602 25.648C112.602 26.16 112.495 26.6133 112.282 27.008C112.079 27.4027 111.791 27.712 111.418 27.936C111.055 28.16 110.639 28.272 110.17 28.272Z" fill="white"/>
</g>
<defs>
<clipPath id="clip0_0_91">
<rect width="140" height="48" fill="white"/>
</clipPath>
</defs>
</svg>
